<?xml version="1.0" encoding="utf-8"?>

<!-- License Agreement at http://iconmonstr.com/license/ -->

<!DOCTYPE svg PUBLIC "-//W3C//DTD SVG 1.1//EN" "http://www.w3.org/Graphics/SVG/1.1/DTD/svg11.dtd">
<svg version="1.1" xmlns="http://www.w3.org/2000/svg" xmlns:xlink="http://www.w3.org/1999/xlink" x="0px" y="0px"
	 width="512px" height="512px" viewBox="0 0 512 512" style="enable-background:new 0 0 512 512;" xml:space="preserve">
<path id="flask-10-icon" d="M291,120.001h40V387c0,41.422-33.578,75-75,75c-41.421,0-75-33.578-75-75V120.001h40v80h31.429v20H221
	v25h31.429v20H221v25h31.429v20H221v25h31.429v20H221V387c0,19.299,15.701,35,35,35s35-15.701,35-35V120.001z M332.25,50h-152.5
	c-11.046,0-20,8.954-20,20s8.954,20,20,20h152.5c11.046,0,20-8.954,20-20S343.296,50,332.25,50z"/>
</svg>
