<?xml version="1.0" encoding="UTF-8" standalone="no"?>
<svg width="100px" height="100px" viewBox="0 0 100 100" version="1.1" xmlns="http://www.w3.org/2000/svg" xmlns:xlink="http://www.w3.org/1999/xlink" xmlns:sketch="http://www.bohemiancoding.com/sketch/ns">
    <!-- Generator: Sketch 3.2.2 (9983) - http://www.bohemiancoding.com/sketch -->
    <title>Untitled 2</title>
    <desc>Created with Sketch.</desc>
    <defs></defs>
    <g id="Page-1" stroke="none" stroke-width="1" fill="none" fill-rule="evenodd" sketch:type="MSPage">
        <path d="M31.1261618,38.4271863 C32.5904403,36.944795 34.2139429,35.7225104 35.9405527,34.7587595 C45.5631207,29.387942 57.9051187,32.2445925 64.0901953,41.7417266 L56.6053069,49.320206 C54.4579185,44.3604867 49.1295447,41.5415841 43.8260255,42.7426356 C41.8295115,43.1948239 39.9320271,44.2028106 38.3815347,45.772887 L24.0323431,60.3011075 C19.676401,64.7115164 19.6765952,71.888138 24.0327315,76.2985468 C28.3886736,80.7089557 35.4764729,80.7089557 39.832415,76.2985468 L44.2557361,71.8201132 C48.2771137,73.435605 52.5932498,74.0826275 56.8503566,73.7592146 L47.0875937,83.644051 C38.7176527,92.1186497 25.1474938,92.1186497 16.7775528,83.644051 C8.40761184,75.1696489 8.40741766,61.4296123 16.7773587,52.9550136 L31.1261618,38.4271863 L31.1261618,38.4271863 Z M53.9122849,15.355949 L44.1495221,25.2407854 C48.4074055,24.9177657 52.722765,25.5647882 56.7443367,27.1802801 L61.1674636,22.7016498 C65.5235999,18.2910443 72.6113992,18.2910443 76.9675355,22.7016498 C81.3236718,27.1122552 81.3236718,34.2886802 76.9675355,38.6992857 L62.6185382,53.2273096 C58.2493921,57.6510874 51.1503306,57.6137328 46.8188546,53.2273096 C45.8087529,52.2047742 44.9365159,50.9313726 44.3947659,49.6805804 L36.9100716,57.2588632 C37.6962888,58.4664026 38.5141566,59.5105644 39.563676,60.5732069 C42.272232,63.3158273 45.7186554,65.3583422 49.6835278,66.3240592 C54.8225804,67.5764242 60.328819,66.8822168 65.059326,64.2416337 C66.7859358,63.2776862 68.4096325,62.0555982 69.8737168,60.5732069 L84.22252,46.045183 C92.592461,37.5705843 92.592461,23.8307443 84.2227142,15.355949 C75.852579,6.88135033 62.2824201,6.88135033 53.9122849,15.355949 L53.9122849,15.355949 Z" id="link-icon" fill="#000000" sketch:type="MSShapeGroup" transform="translate(50.500000, 49.500000) rotate(-315.000000) translate(-50.500000, -49.500000) "></path>
    </g>
</svg>