<?xml version="1.0" encoding="UTF-8" standalone="no"?>
<svg width="340px" height="360px" viewBox="0 0 340 360" version="1.1" xmlns="http://www.w3.org/2000/svg" xmlns:xlink="http://www.w3.org/1999/xlink" xmlns:sketch="http://www.bohemiancoding.com/sketch/ns">
    <!-- Generator: Sketch 3.2.2 (9983) - http://www.bohemiancoding.com/sketch -->
    <title>Landscape</title>
    <desc>Created with Sketch.</desc>
    <defs>
        <linearGradient x1="43.6323692%" y1="0%" x2="106.771199%" y2="90.4148478%" id="linearGradient-1">
            <stop stop-color="#D1C4E9" offset="0%"></stop>
            <stop stop-color="#673AB7" offset="100%"></stop>
        </linearGradient>
    </defs>
    <g id="Page-1" stroke="none" stroke-width="1" fill="none" fill-rule="evenodd" sketch:type="MSPage">
        <g id="Landscape" sketch:type="MSArtboardGroup">
            <path d="M21.184,355 L24.424,355 L34.36,327.064 C35.008,325.336 35.584,323.176 35.584,323.176 L35.728,323.176 C35.728,323.176 36.304,325.336 36.952,327.064 L46.96,355 L50.2,355 L62.872,319 L59.632,319 L49.84,347.224 C49.192,349.024 48.616,351.112 48.616,351.112 L48.472,351.112 C48.472,351.112 47.824,348.952 47.248,347.224 L37.384,319.144 L34,319.144 L24.136,347.224 C23.56,348.952 22.912,351.112 22.912,351.112 L22.768,351.112 C22.768,351.112 22.12,348.952 21.544,347.224 L11.752,319 L8.512,319 L21.184,355 Z M82.432,309.856 L86.032,309.856 L86.032,304.6 L82.432,304.6 L82.432,309.856 Z M82.72,355 L85.744,355 L85.744,319 L82.72,319 L82.72,355 Z M107.32,350.68 C107.32,350.68 111.64,355.864 120.352,355.864 C126.976,355.864 131.872,351.904 131.872,346.144 C131.872,334.192 112.072,337 112.072,327.64 C112.072,322.96 116.104,321.088 120.208,321.088 C126.328,321.088 129.28,324.472 129.28,324.472 L131.08,322.024 C131.08,322.024 127.768,318.136 120.424,318.136 C114.304,318.136 108.904,321.448 108.904,327.856 C108.904,339.592 128.704,337 128.704,346.144 C128.704,350.608 124.816,352.912 120.424,352.912 C113.296,352.912 109.264,348.376 109.264,348.376 L107.32,350.68 Z M154.96,341.968 C154.96,353.92 162.664,355.288 166.408,355.288 C167.488,355.288 168.208,355.144 168.208,355.144 L168.208,352.336 C168.208,352.336 167.56,352.48 166.552,352.48 C163.672,352.48 157.984,351.256 157.984,341.752 L157.984,321.952 L167.416,321.952 L167.416,319.216 L157.984,319.216 L157.984,308.992 L154.96,308.992 L154.96,319.216 L150.208,319.216 L150.208,321.952 L154.96,321.952 L154.96,341.968 Z M185.896,337.072 C185.896,348.52 194.32,355.864 204.472,355.864 C212.248,355.864 217.288,350.896 217.288,350.896 L215.632,348.376 C215.632,348.376 211.384,352.912 204.472,352.912 C196.12,352.912 189.064,346.936 189.064,336.496 L217.936,336.496 C217.936,336.496 218.08,335.344 218.08,334.552 C218.08,325.84 213.184,318.136 203.392,318.136 C194.176,318.136 185.896,324.904 185.896,337.072 L185.896,337.072 Z M189.28,333.688 C190.576,325.264 196.696,320.944 203.32,320.944 C209.296,320.944 214.552,324.904 214.912,333.688 L189.28,333.688 Z M240.232,355 L243.256,355 L243.256,339.448 C243.256,337.072 243.544,334.408 244.336,331.888 C245.92,326.56 249.448,321.808 255.064,321.808 C255.856,321.808 256.72,321.952 256.72,321.952 L256.72,318.928 C256.72,318.928 255.712,318.712 254.632,318.712 C248.944,318.712 244.912,323.248 243.112,328.792 L242.968,328.792 C242.968,328.792 243.256,327.496 243.256,325.84 L243.256,319 L240.232,319 L240.232,355 Z M276.28,309.856 L279.88,309.856 L279.88,304.6 L276.28,304.6 L276.28,309.856 Z M276.568,355 L279.592,355 L279.592,319 L276.568,319 L276.568,355 Z M301.312,345.424 C301.312,352.624 307.72,355.864 313.552,355.864 C322.912,355.864 326.224,347.008 326.152,347.008 L326.296,347.008 C326.296,347.008 326.008,348.304 326.008,350.248 L326.008,355 L329.032,355 L329.032,331.744 C329.032,322.744 324.568,318.136 316.288,318.136 C308.44,318.136 304.12,322.096 304.12,322.096 L305.848,324.544 C305.848,324.544 309.88,321.088 316.144,321.088 C321.904,321.088 326.008,323.824 326.008,331.816 L326.008,333.04 L323.632,333.04 C317.224,333.04 301.312,333.184 301.312,345.424 L301.312,345.424 Z M304.48,345.208 C304.48,335.848 317.584,335.848 323.704,335.848 L326.008,335.848 L326.008,337.792 C326.008,344.92 321.544,353.056 313.696,353.056 C307.576,353.056 304.48,349.024 304.48,345.208 L304.48,345.208 Z" id="Outline" fill="#5C5C5C" sketch:type="MSShapeGroup"></path>
            <g id="Logo" sketch:type="MSLayerGroup" transform="translate(167.608890, 142.000000) rotate(-9.000000) translate(-167.608890, -142.000000) translate(14.108890, -9.000000)" fill-opacity="0.8" fill="url(#linearGradient-1)">
                <g id="Oval-13-+-Oval-12" transform="translate(89.927922, 199.542920) rotate(-45.000000) translate(-89.927922, -199.542920) translate(34.072070, 129.620154)" sketch:type="MSShapeGroup">
                    <path d="M0.446628307,128.625945 C31.4614375,128.837854 59.9233284,108.562001 68.3251839,77.7354185 C76.750368,46.8232422 62.3106141,15.1836211 35.1980908,0.171764533 C44.3984966,21.6439144 46.6754126,46.1748111 40.0665115,70.4230067 C33.4956063,94.5317951 19.1754568,114.564809 0.446628307,128.625945 L0.446628307,128.625945 Z" id="Oval-13"></path>
                    <path d="M113.257786,128.625945 C82.2429771,128.837854 53.7810862,108.562001 45.3792307,77.7354185 C36.9540466,46.8232422 51.3938005,15.1836211 78.5063239,0.171764533 C69.305918,21.6439144 67.0290021,46.1748111 73.6379031,70.4230067 C80.2088084,94.5317951 94.5289578,114.564809 113.257786,128.625945 L113.257786,128.625945 Z" id="Oval-12"></path>
                </g>
                <g id="Oval-13-+-Oval-13" transform="translate(198.288275, 212.704853) rotate(-330.000000) translate(-198.288275, -212.704853) translate(142.432423, 142.782087)" sketch:type="MSShapeGroup">
                    <path d="M0.446628307,128.625945 C31.4614375,128.837854 59.9233284,108.562001 68.3251839,77.7354185 C76.750368,46.8232422 62.3106141,15.1836211 35.1980908,0.171764533 C44.3984966,21.6439144 46.6754126,46.1748111 40.0665115,70.4230067 C33.4956063,94.5317951 19.1754568,114.564809 0.446628307,128.625945 L0.446628307,128.625945 Z" id="Oval-13"></path>
                    <path d="M113.257786,128.625945 C82.2429771,128.837854 53.7810862,108.562001 45.3792307,77.7354185 C36.9540466,46.8232422 51.3938005,15.1836211 78.5063239,0.171764533 C69.305918,21.6439144 67.0290021,46.1748111 73.6379031,70.4230067 C80.2088084,94.5317951 94.5289578,114.564809 113.257786,128.625945 L113.257786,128.625945 Z" id="Oval-12"></path>
                </g>
                <g id="Oval-13-+-Oval-15" transform="translate(216.840598, 88.136647) scale(-1, 1) rotate(310.000000) translate(-216.840598, -88.136647) translate(160.984746, 18.213880)" sketch:type="MSShapeGroup">
                    <path d="M0.446628307,128.625945 C31.4614375,128.837854 59.9233284,108.562001 68.3251839,77.7354185 C76.750368,46.8232422 62.3106141,15.1836211 35.1980908,0.171764533 C44.3984966,21.6439144 46.6754126,46.1748111 40.0665115,70.4230067 C33.4956063,94.5317951 19.1754568,114.564809 0.446628307,128.625945 L0.446628307,128.625945 Z" id="Oval-13"></path>
                    <path d="M113.257786,128.625945 C82.2429771,128.837854 53.7810862,108.562001 45.3792307,77.7354185 C36.9540466,46.8232422 51.3938005,15.1836211 78.5063239,0.171764533 C69.305918,21.6439144 67.0290021,46.1748111 73.6379031,70.4230067 C80.2088084,94.5317951 94.5289578,114.564809 113.257786,128.625945 L113.257786,128.625945 Z" id="Oval-12"></path>
                </g>
                <g id="Oval-13-+-Oval-14" transform="translate(107.745451, 91.804267) scale(-1, 1) rotate(25.000000) translate(-107.745451, -91.804267) translate(51.889599, 21.881501)" sketch:type="MSShapeGroup">
                    <path d="M0.446628307,128.625945 C31.4614375,128.837854 59.9233284,108.562001 68.3251839,77.7354185 C76.750368,46.8232422 62.3106141,15.1836211 35.1980908,0.171764533 C44.3984966,21.6439144 46.6754126,46.1748111 40.0665115,70.4230067 C33.4956063,94.5317951 19.1754568,114.564809 0.446628307,128.625945 L0.446628307,128.625945 Z" id="Oval-13"></path>
                    <path d="M113.257786,128.625945 C82.2429771,128.837854 53.7810862,108.562001 45.3792307,77.7354185 C36.9540466,46.8232422 51.3938005,15.1836211 78.5063239,0.171764533 C69.305918,21.6439144 67.0290021,46.1748111 73.6379031,70.4230067 C80.2088084,94.5317951 94.5289578,114.564809 113.257786,128.625945 L113.257786,128.625945 Z" id="Oval-12"></path>
                </g>
            </g>
        </g>
    </g>
</svg>