<?xml version="1.0" encoding="UTF-8" standalone="no"?>
<svg width="340px" height="360px" viewBox="0 0 340 360" version="1.1" xmlns="http://www.w3.org/2000/svg" xmlns:xlink="http://www.w3.org/1999/xlink" xmlns:sketch="http://www.bohemiancoding.com/sketch/ns">
    <!-- Generator: Sketch 3.2.2 (9983) - http://www.bohemiancoding.com/sketch -->
    <title>wisteria</title>
    <desc>Created with Sketch.</desc>
    <defs>
        <linearGradient x1="43.6323692%" y1="0%" x2="106.771199%" y2="90.4148478%" id="linearGradient-1">
            <stop stop-color="#D1C4E9" offset="0%"></stop>
            <stop stop-color="#673AB7" offset="100%"></stop>
        </linearGradient>
    </defs>
    <g id="Page-1" stroke="none" stroke-width="1" fill="none" fill-rule="evenodd" sketch:type="MSPage">
        <g id="Oval-13-+-Oval-12-+-Oval-13-+-Oval-13-+-Oval-13-+-Oval-15-+-Oval-13-+-Oval-15" sketch:type="MSLayerGroup" transform="translate(15.620890, -36.862638)" fill-opacity="0.8" fill="url(#linearGradient-1)">
            <g id="Oval-13-+-Oval-12-+-Oval-13-+-Oval-13" transform="translate(0.000000, 129.974083)" sketch:type="MSShapeGroup">
                <g id="Oval-13-+-Oval-12" transform="translate(89.927922, 88.568837) rotate(-45.000000) translate(-89.927922, -88.568837) translate(34.072070, 18.646071)">
                    <path d="M0.446628307,128.625945 C31.4614375,128.837854 59.9233284,108.562001 68.3251839,77.7354185 C76.750368,46.8232422 62.3106141,15.1836211 35.1980908,0.171764533 C44.3984966,21.6439144 46.6754126,46.1748111 40.0665115,70.4230067 C33.4956063,94.5317951 19.1754568,114.564809 0.446628307,128.625945 L0.446628307,128.625945 Z" id="Oval-13"></path>
                    <path d="M113.257786,128.625945 C82.2429771,128.837854 53.7810862,108.562001 45.3792307,77.7354185 C36.9540466,46.8232422 51.3938005,15.1836211 78.5063239,0.171764533 C69.305918,21.6439144 67.0290021,46.1748111 73.6379031,70.4230067 C80.2088084,94.5317951 94.5289578,114.564809 113.257786,128.625945 L113.257786,128.625945 Z" id="Oval-12"></path>
                </g>
                <g id="Oval-13-+-Oval-13" transform="translate(198.288275, 101.730770) rotate(-330.000000) translate(-198.288275, -101.730770) translate(142.432423, 31.808003)">
                    <path d="M0.446628307,128.625945 C31.4614375,128.837854 59.9233284,108.562001 68.3251839,77.7354185 C76.750368,46.8232422 62.3106141,15.1836211 35.1980908,0.171764533 C44.3984966,21.6439144 46.6754126,46.1748111 40.0665115,70.4230067 C33.4956063,94.5317951 19.1754568,114.564809 0.446628307,128.625945 L0.446628307,128.625945 Z" id="Oval-13"></path>
                    <path d="M113.257786,128.625945 C82.2429771,128.837854 53.7810862,108.562001 45.3792307,77.7354185 C36.9540466,46.8232422 51.3938005,15.1836211 78.5063239,0.171764533 C69.305918,21.6439144 67.0290021,46.1748111 73.6379031,70.4230067 C80.2088084,94.5317951 94.5289578,114.564809 113.257786,128.625945 L113.257786,128.625945 Z" id="Oval-12"></path>
                </g>
            </g>
            <g id="Oval-13-+-Oval-15-+-Oval-13-+-Oval-15" transform="translate(163.099088, 106.940701) scale(-1, 1) rotate(355.000000) translate(-163.099088, -106.940701) translate(21.783782, 12.065105)" sketch:type="MSShapeGroup">
                <g id="Oval-13-+-Oval-15" transform="translate(89.927922, 88.568837) rotate(-45.000000) translate(-89.927922, -88.568837) translate(34.072070, 18.646071)">
                    <path d="M0.446628307,128.625945 C31.4614375,128.837854 59.9233284,108.562001 68.3251839,77.7354185 C76.750368,46.8232422 62.3106141,15.1836211 35.1980908,0.171764533 C44.3984966,21.6439144 46.6754126,46.1748111 40.0665115,70.4230067 C33.4956063,94.5317951 19.1754568,114.564809 0.446628307,128.625945 L0.446628307,128.625945 Z" id="Oval-13"></path>
                    <path d="M113.257786,128.625945 C82.2429771,128.837854 53.7810862,108.562001 45.3792307,77.7354185 C36.9540466,46.8232422 51.3938005,15.1836211 78.5063239,0.171764533 C69.305918,21.6439144 67.0290021,46.1748111 73.6379031,70.4230067 C80.2088084,94.5317951 94.5289578,114.564809 113.257786,128.625945 L113.257786,128.625945 Z" id="Oval-12"></path>
                </g>
                <g id="Oval-13-+-Oval-14" transform="translate(198.288275, 101.730770) rotate(-330.000000) translate(-198.288275, -101.730770) translate(142.432423, 31.808003)">
                    <path d="M0.446628307,128.625945 C31.4614375,128.837854 59.9233284,108.562001 68.3251839,77.7354185 C76.750368,46.8232422 62.3106141,15.1836211 35.1980908,0.171764533 C44.3984966,21.6439144 46.6754126,46.1748111 40.0665115,70.4230067 C33.4956063,94.5317951 19.1754568,114.564809 0.446628307,128.625945 L0.446628307,128.625945 Z" id="Oval-13"></path>
                    <path d="M113.257786,128.625945 C82.2429771,128.837854 53.7810862,108.562001 45.3792307,77.7354185 C36.9540466,46.8232422 51.3938005,15.1836211 78.5063239,0.171764533 C69.305918,21.6439144 67.0290021,46.1748111 73.6379031,70.4230067 C80.2088084,94.5317951 94.5289578,114.564809 113.257786,128.625945 L113.257786,128.625945 Z" id="Oval-12"></path>
                </g>
            </g>
        </g>
        <path d="M22.184,351 L25.424,351 L35.36,323.064 C36.008,321.336 36.584,319.176 36.584,319.176 L36.728,319.176 C36.728,319.176 37.304,321.336 37.952,323.064 L47.96,351 L51.2,351 L63.872,315 L60.632,315 L50.84,343.224 C50.192,345.024 49.616,347.112 49.616,347.112 L49.472,347.112 C49.472,347.112 48.824,344.952 48.248,343.224 L38.384,315.144 L35,315.144 L25.136,343.224 C24.56,344.952 23.912,347.112 23.912,347.112 L23.768,347.112 C23.768,347.112 23.12,344.952 22.544,343.224 L12.752,315 L9.512,315 L22.184,351 Z M83.432,305.856 L87.032,305.856 L87.032,300.6 L83.432,300.6 L83.432,305.856 Z M83.72,351 L86.744,351 L86.744,315 L83.72,315 L83.72,351 Z M108.32,346.68 C108.32,346.68 112.64,351.864 121.352,351.864 C127.976,351.864 132.872,347.904 132.872,342.144 C132.872,330.192 113.072,333 113.072,323.64 C113.072,318.96 117.104,317.088 121.208,317.088 C127.328,317.088 130.28,320.472 130.28,320.472 L132.08,318.024 C132.08,318.024 128.768,314.136 121.424,314.136 C115.304,314.136 109.904,317.448 109.904,323.856 C109.904,335.592 129.704,333 129.704,342.144 C129.704,346.608 125.816,348.912 121.424,348.912 C114.296,348.912 110.264,344.376 110.264,344.376 L108.32,346.68 Z M155.96,337.968 C155.96,349.92 163.664,351.288 167.408,351.288 C168.488,351.288 169.208,351.144 169.208,351.144 L169.208,348.336 C169.208,348.336 168.56,348.48 167.552,348.48 C164.672,348.48 158.984,347.256 158.984,337.752 L158.984,317.952 L168.416,317.952 L168.416,315.216 L158.984,315.216 L158.984,304.992 L155.96,304.992 L155.96,315.216 L151.208,315.216 L151.208,317.952 L155.96,317.952 L155.96,337.968 Z M186.896,333.072 C186.896,344.52 195.32,351.864 205.472,351.864 C213.248,351.864 218.288,346.896 218.288,346.896 L216.632,344.376 C216.632,344.376 212.384,348.912 205.472,348.912 C197.12,348.912 190.064,342.936 190.064,332.496 L218.936,332.496 C218.936,332.496 219.08,331.344 219.08,330.552 C219.08,321.84 214.184,314.136 204.392,314.136 C195.176,314.136 186.896,320.904 186.896,333.072 L186.896,333.072 Z M190.28,329.688 C191.576,321.264 197.696,316.944 204.32,316.944 C210.296,316.944 215.552,320.904 215.912,329.688 L190.28,329.688 Z M241.232,351 L244.256,351 L244.256,335.448 C244.256,333.072 244.544,330.408 245.336,327.888 C246.92,322.56 250.448,317.808 256.064,317.808 C256.856,317.808 257.72,317.952 257.72,317.952 L257.72,314.928 C257.72,314.928 256.712,314.712 255.632,314.712 C249.944,314.712 245.912,319.248 244.112,324.792 L243.968,324.792 C243.968,324.792 244.256,323.496 244.256,321.84 L244.256,315 L241.232,315 L241.232,351 Z M277.28,305.856 L280.88,305.856 L280.88,300.6 L277.28,300.6 L277.28,305.856 Z M277.568,351 L280.592,351 L280.592,315 L277.568,315 L277.568,351 Z M302.312,341.424 C302.312,348.624 308.72,351.864 314.552,351.864 C323.912,351.864 327.224,343.008 327.152,343.008 L327.296,343.008 C327.296,343.008 327.008,344.304 327.008,346.248 L327.008,351 L330.032,351 L330.032,327.744 C330.032,318.744 325.568,314.136 317.288,314.136 C309.44,314.136 305.12,318.096 305.12,318.096 L306.848,320.544 C306.848,320.544 310.88,317.088 317.144,317.088 C322.904,317.088 327.008,319.824 327.008,327.816 L327.008,329.04 L324.632,329.04 C318.224,329.04 302.312,329.184 302.312,341.424 L302.312,341.424 Z M305.48,341.208 C305.48,331.848 318.584,331.848 324.704,331.848 L327.008,331.848 L327.008,333.792 C327.008,340.92 322.544,349.056 314.696,349.056 C308.576,349.056 305.48,345.024 305.48,341.208 L305.48,341.208 Z" id="wisteria" fill="#5C5C5C" sketch:type="MSShapeGroup"></path>
    </g>
</svg>